<svg xmlns="http://www.w3.org/2000/svg" width="32" height="32" viewBox="0 0 32 32">
  <defs>
    <style>
      .cls-1 {
        fill: #3e3e3e;
        fill-rule: evenodd;
      }
    </style>
  </defs>
  <path id="Mail_2" class="cls-1" d="M767.433,3531.18l29.991-21h0a0.024,0.024,0,0,0,.023-0.01,0.315,0.315,0,0,0,.08-0.04c0.031-.01.06-0.03,0.091-0.04s0.078-.03.119-0.05,0.071-.01.108-0.02,0.048-.01.073-0.01a0.049,0.049,0,0,0,.035-0.01,0.611,0.611,0,0,1,.134.02,0.385,0.385,0,0,1,.107.01,0.292,0.292,0,0,1,.091.02c0.034,0.01.063,0.03,0.1,0.04s0.082,0.03.121,0.05c0.006,0,.011.01,0.017,0.01a0.012,0.012,0,0,0,.013.01c0.014,0.01.02,0.02,0.033,0.03s0.035,0.03.052,0.04l0.051,0.03c0.007,0.01.01,0.02,0.018,0.03a0.684,0.684,0,0,1,.1.11,0.393,0.393,0,0,1,.058.08c0.019,0.03.04,0.06,0.056,0.09s0.013,0.04.021,0.06c0.014,0.04.027,0.07,0.037,0.11,0.006,0.02.015,0.04,0.02,0.06s0.006,0.07.01,0.1a0.809,0.809,0,0,1,0,.11c0,0.03.008,0.06,0,.09L796,3541.09a1.006,1.006,0,0,1-.528.79,0.992,0.992,0,0,1-.946-0.01l-11-6a0.235,0.235,0,0,1-.062-0.05l-3.615,5.71c-0.033.05-.074,0.09-0.114,0.14-0.013.01-.022,0.03-0.036,0.04a1.055,1.055,0,0,1-.278.19,0.18,0.18,0,0,1-.07.02,0.826,0.826,0,0,1-.345.07h0a1.021,1.021,0,0,1-.344-0.06c-0.033-.02-0.063-0.03-0.094-0.05a0.383,0.383,0,0,1-.1-0.04c-0.031-.02-0.047-0.05-0.076-0.07a1.992,1.992,0,0,1-.147-0.14,0.884,0.884,0,0,1-.105-0.16,1.145,1.145,0,0,1-.075-0.17,1.016,1.016,0,0,1-.041-0.2c0-.04-0.021-0.07-0.021-0.11v-8h-10A0.994,0.994,0,0,1,767.433,3531.18Zm12.574,6.37,10.9-17.22-10.9,12.05v5.17Zm14.154,1.84,2.423-24.28-12.054,19.03Zm-15.6-8.4,12.747-14.09-20.131,14.09h7.384Z" transform="translate(-767 -3510)"/>
</svg>
