<svg xmlns="http://www.w3.org/2000/svg" width="32" height="32" viewBox="0 0 32 32">
  <defs>
    <style>
      .cls-1 {
        fill: #3e3e3e;
        fill-rule: evenodd;
      }
    </style>
  </defs>
  <path id="Phone_2" class="cls-1" d="M773.082,3628.99a3.534,3.534,0,0,1-2.512-1.04l-0.9-.9c-3.93-3.92-.77-13.22,7.193-21.17,5.484-5.47,11.836-8.87,16.58-8.87a6.4,6.4,0,0,1,4.631,1.69l0.9,0.9a3.545,3.545,0,0,1,0,5.02l-3.6,3.59a3.653,3.653,0,0,1-5.025,0l-0.9-.9a1.517,1.517,0,0,0-1.134-.43c-0.9,0-2.926.52-6.43,4.02-4.114,4.1-4.555,6.59-3.6,7.55l0.9,0.9a3.541,3.541,0,0,1,0,5.01l-3.6,3.59A3.535,3.535,0,0,1,773.082,3628.99Zm20.362-29.96c-4.163,0-10.111,3.25-15.152,8.28-6.924,6.91-10.218,15.3-7.193,18.32l0.9,0.89a1.572,1.572,0,0,0,2.171,0l3.6-3.59a1.526,1.526,0,0,0,0-2.16l-0.9-.9c-1.025-1.02-2.728-4.09,3.6-10.4,3.065-3.06,5.709-4.61,7.858-4.61a3.566,3.566,0,0,1,2.562,1.02l0.9,0.9a1.569,1.569,0,0,0,2.169,0l3.6-3.59a1.523,1.523,0,0,0,0-2.16l-0.9-.9A4.365,4.365,0,0,0,793.444,3599.03Z" transform="translate(-768 -3597)"/>
</svg>
